<svg width="157" height="56" viewBox="0 0 157 56" fill="none" xmlns="http://www.w3.org/2000/svg">
<g clip-path="url(#clip0_0_781)">
<rect width="157" height="56" rx="10" fill="#F6F8FD"/>
<path d="M74.2656 29.1406C74.2656 27.8906 74.4245 26.8099 74.7422 25.8984C75.0651 24.987 75.5417 24.2839 76.1719 23.7891C76.8021 23.2943 77.5781 23.0469 78.5 23.0469C79.4271 23.0469 80.2031 23.2943 80.8281 23.7891C81.4583 24.2839 81.9323 24.987 82.25 25.8984C82.5729 26.8099 82.7344 27.8906 82.7344 29.1406C82.7344 30.3906 82.5729 31.4714 82.25 32.3828C81.9323 33.2943 81.4583 33.9974 80.8281 34.4922C80.2031 34.987 79.4271 35.2344 78.5 35.2344C77.5781 35.2344 76.8021 34.987 76.1719 34.4922C75.5417 33.9974 75.0651 33.2943 74.7422 32.3828C74.4245 31.4714 74.2656 30.3906 74.2656 29.1406ZM76.6562 29.1406C76.6562 30.3646 76.8125 31.3359 77.125 32.0547C77.4375 32.7682 77.8958 33.125 78.5 33.125C79.1042 33.125 79.5625 32.7682 79.875 32.0547C80.1875 31.3359 80.3438 30.3646 80.3438 29.1406C80.3438 27.9115 80.1875 26.9401 79.875 26.2266C79.5625 25.513 79.1042 25.1562 78.5 25.1562C77.8958 25.1562 77.4375 25.513 77.125 26.2266C76.8125 26.9401 76.6562 27.9115 76.6562 29.1406Z" fill="#1D2026"/>
<path d="M27.3571 29.3321C27.7134 29.3321 28 29.0455 28 28.6893V26.6429C28 26.2866 27.7134 26 27.3571 26H16.6429C16.2866 26 16 26.2866 16 26.6429V28.6893C16 29.0455 16.2866 29.3321 16.6429 29.3321H27.3571Z" fill="#FF7E1B"/>
<mask id="mask0_0_781" style="mask-type:luminance" maskUnits="userSpaceOnUse" x="16" y="26" width="12" height="4">
<path d="M27.3571 29.3321C27.7134 29.3321 28 29.0455 28 28.6893V26.6429C28 26.2866 27.7134 26 27.3571 26H16.6429C16.2866 26 16 26.2866 16 26.6429V28.6893C16 29.0455 16.2866 29.3321 16.6429 29.3321H27.3571Z" fill="white"/>
</mask>
<g mask="url(#mask0_0_781)">
</g>
<path d="M141 29.0232V26.9768C141 26.6205 140.713 26.3339 140.357 26.3339H136.666V22.6429C136.666 22.2866 136.379 22 136.023 22H133.977C133.621 22 133.334 22.2866 133.334 22.6429V26.3339H129.643C129.287 26.3339 129 26.6205 129 26.9768V29.0232C129 29.3795 129.287 29.6661 129.643 29.6661H133.334V33.3571C133.334 33.7134 133.621 34 133.977 34H136.023C136.379 34 136.666 33.7134 136.666 33.3571V29.6661H140.357C140.713 29.6661 141 29.3795 141 29.0232Z" fill="black"/>
<mask id="mask1_0_781" style="mask-type:luminance" maskUnits="userSpaceOnUse" x="129" y="22" width="12" height="12">
<path d="M141 29.0232V26.9768C141 26.6205 140.713 26.3339 140.357 26.3339H136.666V22.6429C136.666 22.2866 136.379 22 136.023 22H133.977C133.621 22 133.334 22.2866 133.334 22.6429V26.3339H129.643C129.287 26.3339 129 26.6205 129 26.9768V29.0232C129 29.3795 129.287 29.6661 129.643 29.6661H133.334V33.3571C133.334 33.7134 133.621 34 133.977 34H136.023C136.379 34 136.666 33.7134 136.666 33.3571V29.6661H140.357C140.713 29.6661 141 29.3795 141 29.0232Z" fill="white"/>
</mask>
<g mask="url(#mask1_0_781)">
<rect x="128.143" y="21.1429" width="13.7143" height="13.7143" fill="#FF7E1B"/>
</g>
</g>
<defs>
<clipPath id="clip0_0_781">
<rect width="157" height="56" fill="white"/>
</clipPath>
</defs>
</svg>
