<svg width="167" height="27" viewBox="0 0 167 27" fill="none" xmlns="http://www.w3.org/2000/svg">
<g clip-path="url(#clip0_2201_20)">
<rect width="35" height="27" rx="6" fill="#FFEEE2"/>
<path d="M12.8359 20.2344C11.9609 20.2344 11.2031 19.9974 10.5625 19.5234C9.92188 19.0443 9.42448 18.3516 9.07031 17.4453C8.72135 16.5339 8.54688 15.4297 8.54688 14.1328C8.54688 12.8411 8.72135 11.7422 9.07031 10.8359C9.42448 9.92969 9.92188 9.23958 10.5625 8.76562C11.2031 8.28646 11.9609 8.04688 12.8359 8.04688C13.7161 8.04688 14.4766 8.28646 15.1172 8.76562C15.7578 9.23958 16.2526 9.92969 16.6016 10.8359C16.9557 11.7422 17.1328 12.8411 17.1328 14.1328C17.1328 15.4297 16.9583 16.5339 16.6094 17.4453C16.2604 18.3516 15.763 19.0443 15.1172 19.5234C14.4766 19.9974 13.7161 20.2344 12.8359 20.2344ZM12.8359 18.1328C13.4193 18.1328 13.8698 17.7839 14.1875 17.0859C14.5104 16.388 14.6719 15.4062 14.6719 14.1406C14.6719 12.8698 14.5104 11.888 14.1875 11.1953C13.8698 10.4974 13.4193 10.1484 12.8359 10.1484C12.263 10.1484 11.8151 10.4974 11.4922 11.1953C11.1693 11.888 11.0078 12.8698 11.0078 14.1406C11.0078 15.4062 11.1693 16.388 11.4922 17.0859C11.8151 17.7839 12.263 18.1328 12.8359 18.1328ZM18.2344 18.7891L19.4766 16.8359C19.6797 17.2266 19.9844 17.5417 20.3906 17.7812C20.7969 18.0156 21.237 18.1328 21.7109 18.1328C22.1224 18.1328 22.487 18.0443 22.8047 17.8672C23.1224 17.6901 23.3698 17.4453 23.5469 17.1328C23.7292 16.8151 23.8203 16.4531 23.8203 16.0469C23.8203 15.6354 23.7292 15.2734 23.5469 14.9609C23.3698 14.6484 23.1198 14.4036 22.7969 14.2266C22.474 14.0495 22.1068 13.9609 21.6953 13.9609C21.3828 13.9609 21.0885 14.0156 20.8125 14.125C20.5365 14.2344 20.2891 14.3932 20.0703 14.6016L18.9062 13.9219L19.4219 8.28125H25.5859V10.3828H21.625L21.3672 12.8594C21.7161 12.7604 22.0859 12.7109 22.4766 12.7109C23.2057 12.7109 23.8568 12.8672 24.4297 13.1797C25.0026 13.4922 25.4531 13.9193 25.7812 14.4609C26.1146 15.0026 26.2812 15.625 26.2812 16.3281C26.2812 17.0781 26.0911 17.7474 25.7109 18.3359C25.3359 18.9245 24.8203 19.388 24.1641 19.7266C23.513 20.0651 22.7656 20.2344 21.9219 20.2344C21.2188 20.2344 20.5443 20.1094 19.8984 19.8594C19.2578 19.6042 18.7031 19.2474 18.2344 18.7891Z" fill="#FF7E1B"/>
</g>
<g clip-path="url(#clip1_2201_20)">
<rect x="44" width="35" height="27" rx="6" fill="#FFEEE2"/>
<path d="M59.4453 20H57.0391V10.6406L55.0781 11.3594L54.3281 9.44531L57.5312 8.28125H59.4453V20ZM61.1406 18.7891L62.3828 16.8359C62.5859 17.2266 62.8906 17.5417 63.2969 17.7812C63.7031 18.0156 64.1432 18.1328 64.6172 18.1328C65.0286 18.1328 65.3932 18.0443 65.7109 17.8672C66.0286 17.6901 66.276 17.4453 66.4531 17.1328C66.6354 16.8151 66.7266 16.4531 66.7266 16.0469C66.7266 15.6354 66.6354 15.2734 66.4531 14.9609C66.276 14.6484 66.026 14.4036 65.7031 14.2266C65.3802 14.0495 65.013 13.9609 64.6016 13.9609C64.2891 13.9609 63.9948 14.0156 63.7188 14.125C63.4427 14.2344 63.1953 14.3932 62.9766 14.6016L61.8125 13.9219L62.3281 8.28125H68.4922V10.3828H64.5312L64.2734 12.8594C64.6224 12.7604 64.9922 12.7109 65.3828 12.7109C66.112 12.7109 66.763 12.8672 67.3359 13.1797C67.9089 13.4922 68.3594 13.9193 68.6875 14.4609C69.0208 15.0026 69.1875 15.625 69.1875 16.3281C69.1875 17.0781 68.9974 17.7474 68.6172 18.3359C68.2422 18.9245 67.7266 19.388 67.0703 19.7266C66.4193 20.0651 65.6719 20.2344 64.8281 20.2344C64.125 20.2344 63.4505 20.1094 62.8047 19.8594C62.1641 19.6042 61.6094 19.2474 61.1406 18.7891Z" fill="#FF7E1B"/>
</g>
<g clip-path="url(#clip2_2201_20)">
<rect x="88" width="35" height="27" rx="6" fill="#FFEEE2"/>
<path d="M96.6875 18.9844L97.6094 17.2031C98.026 17.5104 98.4349 17.7422 98.8359 17.8984C99.2422 18.0547 99.6354 18.1328 100.016 18.1328C100.385 18.1328 100.711 18.0625 100.992 17.9219C101.279 17.7812 101.503 17.5859 101.664 17.3359C101.826 17.0859 101.906 16.7995 101.906 16.4766C101.906 15.9401 101.685 15.5234 101.242 15.2266C100.799 14.9245 100.182 14.7734 99.3906 14.7734H98.8906V13.1016H99.3906C99.8177 13.1016 100.198 13.0339 100.531 12.8984C100.87 12.7578 101.135 12.5677 101.328 12.3281C101.521 12.0833 101.617 11.8047 101.617 11.4922C101.617 11.2318 101.547 11 101.406 10.7969C101.271 10.5938 101.083 10.4349 100.844 10.3203C100.609 10.2057 100.339 10.1484 100.031 10.1484C99.7135 10.1484 99.3802 10.2161 99.0312 10.3516C98.6875 10.487 98.3255 10.6927 97.9453 10.9688L96.8906 9.29688C97.349 8.89583 97.8672 8.58854 98.4453 8.375C99.0234 8.15625 99.6276 8.04688 100.258 8.04688C100.961 8.04688 101.583 8.17448 102.125 8.42969C102.672 8.6849 103.102 9.03646 103.414 9.48438C103.732 9.93229 103.891 10.4479 103.891 11.0312C103.891 11.6667 103.706 12.2344 103.336 12.7344C102.966 13.2344 102.479 13.6172 101.875 13.8828C102.661 14.1016 103.279 14.4661 103.727 14.9766C104.18 15.487 104.406 16.1068 104.406 16.8359C104.406 17.487 104.224 18.0703 103.859 18.5859C103.5 19.0964 103.008 19.5 102.383 19.7969C101.758 20.0885 101.047 20.2344 100.25 20.2344C99.5938 20.2344 98.9609 20.1276 98.3516 19.9141C97.7422 19.6953 97.1875 19.3854 96.6875 18.9844ZM113.602 20H106.133V18.5859C107.055 17.763 107.828 17.0365 108.453 16.4062C109.083 15.776 109.586 15.2135 109.961 14.7188C110.336 14.224 110.607 13.7708 110.773 13.3594C110.94 12.9427 111.023 12.5391 111.023 12.1484C111.023 11.7474 110.948 11.3958 110.797 11.0938C110.651 10.7917 110.443 10.5573 110.172 10.3906C109.906 10.224 109.596 10.1406 109.242 10.1406C108.836 10.1406 108.443 10.2578 108.062 10.4922C107.682 10.7214 107.359 11.0391 107.094 11.4453L105.875 9.91406C106.333 9.32031 106.901 8.86198 107.578 8.53906C108.26 8.21094 108.969 8.04688 109.703 8.04688C110.401 8.04688 111.036 8.19531 111.609 8.49219C112.182 8.78906 112.638 9.21094 112.977 9.75781C113.315 10.3047 113.484 10.9505 113.484 11.6953C113.484 12.2161 113.393 12.7422 113.211 13.2734C113.034 13.7995 112.773 14.3229 112.43 14.8438C112.091 15.3646 111.674 15.8828 111.18 16.3984C110.69 16.9089 110.13 17.4089 109.5 17.8984H113.602V20Z" fill="#FF7E1B"/>
</g>
<g clip-path="url(#clip3_2201_20)">
<rect x="132" width="35" height="27" rx="6" fill="#FFEEE2"/>
<path d="M147.445 20H145.039V10.6406L143.078 11.3594L142.328 9.44531L145.531 8.28125H147.445V20ZM152.391 20H149.789L153.75 10.3828H148.844V8.28125H156.578V9.85156L152.391 20Z" fill="#FF7E1B"/>
</g>
<rect x="38" y="9" width="3" height="3" rx="1.5" fill="#FF7E1B"/>
<rect x="38" y="15" width="3" height="3" rx="1.5" fill="#FF7E1B"/>
<rect x="82" y="9" width="3" height="3" rx="1.5" fill="#FF7E1B"/>
<rect x="82" y="15" width="3" height="3" rx="1.5" fill="#FF7E1B"/>
<rect x="126" y="9" width="3" height="3" rx="1.5" fill="#FF7E1B"/>
<rect x="126" y="15" width="3" height="3" rx="1.5" fill="#FF7E1B"/>
<defs>
<clipPath id="clip0_2201_20">
<rect width="35" height="27" fill="white"/>
</clipPath>
<clipPath id="clip1_2201_20">
<rect width="35" height="27" fill="white" transform="translate(44)"/>
</clipPath>
<clipPath id="clip2_2201_20">
<rect width="35" height="27" fill="white" transform="translate(88)"/>
</clipPath>
<clipPath id="clip3_2201_20">
<rect width="35" height="27" fill="white" transform="translate(132)"/>
</clipPath>
</defs>
</svg>
